<?xml version="1.0" encoding="UTF-8" standalone="no"?>
<!DOCTYPE svg PUBLIC "-//W3C//DTD SVG 1.1//EN"
 "http://www.w3.org/Graphics/SVG/1.1/DTD/svg11.dtd">
<!-- Generated by graphviz version 2.43.0 (0)
 -->
<!-- Title: %3 Pages: 1 -->
<svg width="230pt" height="235pt"
 viewBox="0.00 0.00 230.00 235.18" xmlns="http://www.w3.org/2000/svg" xmlns:xlink="http://www.w3.org/1999/xlink">
<g id="graph0" class="graph" transform="scale(1 1) rotate(0) translate(4 231.18)">
<title>%3</title>
<polygon fill="white" stroke="transparent" points="-4,4 -4,-231.18 226,-231.18 226,4 -4,4"/>
<!-- delta_x -->
<g id="node1" class="node">
<title>delta_x</title>
<polygon fill="lightgray" stroke="black" points="50,-227.18 0,-227.18 0,-209.18 50,-209.18 50,-227.18"/>
<text text-anchor="middle" x="25" y="-215.98" font-family="Times,serif" font-size="9.00">delta_x</text>
</g>
<!-- Jump or Not -->
<g id="node4" class="node">
<title>Jump or Not</title>
<ellipse fill="lightblue" stroke="black" cx="86" cy="-52.33" rx="52.15" ry="52.15"/>
<text text-anchor="middle" x="86" y="-50.13" font-family="Times,serif" font-size="9.00">Jump or Not</text>
</g>
<!-- delta_x&#45;&gt;Jump or Not -->
<g id="edge1" class="edge">
<title>delta_x&#45;&gt;Jump or Not</title>
<path fill="none" stroke="green" stroke-width="0.35" stroke-dasharray="1,5" d="M25.66,-208.92C26.98,-194.65 30.6,-164.61 39,-140.65 43.01,-129.23 48.36,-117.49 54.01,-106.48"/>
<polygon fill="green" stroke="green" stroke-width="0.35" points="57.22,-107.89 58.81,-97.42 51.04,-104.62 57.22,-107.89"/>
</g>
<!-- 3 -->
<g id="node5" class="node">
<title>3</title>
<ellipse fill="white" stroke="black" cx="64" cy="-156.92" rx="16.03" ry="16.03"/>
<text text-anchor="middle" x="64" y="-154.72" font-family="Times,serif" font-size="9.00">3</text>
</g>
<!-- delta_x&#45;&gt;3 -->
<g id="edge4" class="edge">
<title>delta_x&#45;&gt;3</title>
<path fill="none" stroke="green" stroke-width="0.22" d="M30.42,-208.94C35.41,-201.36 43.02,-189.79 49.74,-179.58"/>
<polygon fill="green" stroke="green" stroke-width="0.22" points="52.75,-181.37 55.33,-171.1 46.91,-177.52 52.75,-181.37"/>
</g>
<!-- delta_y_top -->
<g id="node2" class="node">
<title>delta_y_top</title>
<polygon fill="lightgray" stroke="black" points="139.5,-227.18 70.5,-227.18 70.5,-209.18 139.5,-209.18 139.5,-227.18"/>
<text text-anchor="middle" x="105" y="-215.98" font-family="Times,serif" font-size="9.00">delta_y_top</text>
</g>
<!-- delta_y_top&#45;&gt;Jump or Not -->
<g id="edge2" class="edge">
<title>delta_y_top&#45;&gt;Jump or Not</title>
<path fill="none" stroke="green" stroke-width="0.32" d="M104.03,-208.83C102.03,-191.56 97.27,-150.54 93.15,-114.97"/>
<polygon fill="green" stroke="green" stroke-width="0.32" points="96.58,-114.15 91.95,-104.62 89.62,-114.96 96.58,-114.15"/>
</g>
<!-- delta_y_top&#45;&gt;3 -->
<g id="edge6" class="edge">
<title>delta_y_top&#45;&gt;3</title>
<path fill="none" stroke="green" stroke-width="0.11" d="M99.3,-208.94C93.94,-201.19 85.68,-189.25 78.5,-178.87"/>
<polygon fill="green" stroke="green" stroke-width="0.11" points="81.38,-176.88 72.81,-170.65 75.62,-180.86 81.38,-176.88"/>
</g>
<!-- delta_y_bottom -->
<g id="node3" class="node">
<title>delta_y_bottom</title>
<polygon fill="lightgray" stroke="black" points="222,-165.92 136,-165.92 136,-147.92 222,-147.92 222,-165.92"/>
<text text-anchor="middle" x="179" y="-154.72" font-family="Times,serif" font-size="9.00">delta_y_bottom</text>
</g>
<!-- delta_y_bottom&#45;&gt;Jump or Not -->
<g id="edge3" class="edge">
<title>delta_y_bottom&#45;&gt;Jump or Not</title>
<path fill="none" stroke="green" stroke-width="0.31" d="M171.7,-147.87C162.19,-137.37 144.78,-118.17 128.13,-99.8"/>
<polygon fill="green" stroke="green" stroke-width="0.31" points="130.38,-97.07 121.07,-92.01 125.19,-101.77 130.38,-97.07"/>
</g>
<!-- 3&#45;&gt;Jump or Not -->
<g id="edge5" class="edge">
<title>3&#45;&gt;Jump or Not</title>
<path fill="none" stroke="red" stroke-width="0.55" d="M67.25,-140.78C68.86,-133.26 70.92,-123.63 73.09,-113.53"/>
<polygon fill="red" stroke="red" stroke-width="0.55" points="76.51,-114.26 75.19,-103.75 69.67,-112.8 76.51,-114.26"/>
</g>
</g>
</svg>
